<svg id="visual" viewBox="0 0 900 600" width="900" height="600" xmlns="http://www.w3.org/2000/svg" xmlns:xlink="http://www.w3.org/1999/xlink" version="1.1"><rect x="0" y="0" width="900" height="600" fill="#ffffff"></rect><path d="M0 383L10.7 365.8C21.3 348.7 42.7 314.3 64.2 310.8C85.7 307.3 107.3 334.7 128.8 340C150.3 345.3 171.7 328.7 193 316.2C214.3 303.7 235.7 295.3 257 298.8C278.3 302.3 299.7 317.7 321.2 328.8C342.7 340 364.3 347 385.8 357C407.3 367 428.7 380 450 372.8C471.3 365.7 492.7 338.3 514.2 330.8C535.7 323.3 557.3 335.7 578.8 346.8C600.3 358 621.7 368 643 368.7C664.3 369.3 685.7 360.7 707 357.5C728.3 354.3 749.7 356.7 771.2 343.7C792.7 330.7 814.3 302.3 835.8 299.8C857.3 297.3 878.7 320.7 889.3 332.3L900 344L900 0L889.3 0C878.7 0 857.3 0 835.8 0C814.3 0 792.7 0 771.2 0C749.7 0 728.3 0 707 0C685.7 0 664.3 0 643 0C621.7 0 600.3 0 578.8 0C557.3 0 535.7 0 514.2 0C492.7 0 471.3 0 450 0C428.7 0 407.3 0 385.8 0C364.3 0 342.7 0 321.2 0C299.7 0 278.3 0 257 0C235.7 0 214.3 0 193 0C171.7 0 150.3 0 128.8 0C107.3 0 85.7 0 64.2 0C42.7 0 21.3 0 10.7 0L0 0Z" fill="#1eb7b1"></path><path d="M0 186L10.7 191.8C21.3 197.7 42.7 209.3 64.2 216C85.7 222.7 107.3 224.3 128.8 218.8C150.3 213.3 171.7 200.7 193 208C214.3 215.3 235.7 242.7 257 251.2C278.3 259.7 299.7 249.3 321.2 254.7C342.7 260 364.3 281 385.8 286.3C407.3 291.7 428.7 281.3 450 266C471.3 250.7 492.7 230.3 514.2 228.5C535.7 226.7 557.3 243.3 578.8 255.3C600.3 267.3 621.7 274.7 643 269.5C664.3 264.3 685.7 246.7 707 245.5C728.3 244.3 749.7 259.7 771.2 270.8C792.7 282 814.3 289 835.8 275.5C857.3 262 878.7 228 889.3 211L900 194L900 0L889.3 0C878.7 0 857.3 0 835.8 0C814.3 0 792.7 0 771.2 0C749.7 0 728.3 0 707 0C685.7 0 664.3 0 643 0C621.7 0 600.3 0 578.8 0C557.3 0 535.7 0 514.2 0C492.7 0 471.3 0 450 0C428.7 0 407.3 0 385.8 0C364.3 0 342.7 0 321.2 0C299.7 0 278.3 0 257 0C235.7 0 214.3 0 193 0C171.7 0 150.3 0 128.8 0C107.3 0 85.7 0 64.2 0C42.7 0 21.3 0 10.7 0L0 0Z" fill="#009fbd"></path><path d="M0 189L10.7 181.8C21.3 174.7 42.7 160.3 64.2 157.7C85.7 155 107.3 164 128.8 175.8C150.3 187.7 171.7 202.3 193 211C214.3 219.7 235.7 222.3 257 214.7C278.3 207 299.7 189 321.2 176.8C342.7 164.7 364.3 158.3 385.8 163C407.3 167.7 428.7 183.3 450 177.3C471.3 171.3 492.7 143.7 514.2 135.5C535.7 127.3 557.3 138.7 578.8 146.5C600.3 154.3 621.7 158.7 643 155.7C664.3 152.7 685.7 142.3 707 145C728.3 147.7 749.7 163.3 771.2 177.7C792.7 192 814.3 205 835.8 194.8C857.3 184.7 878.7 151.3 889.3 134.7L900 118L900 0L889.3 0C878.7 0 857.3 0 835.8 0C814.3 0 792.7 0 771.2 0C749.7 0 728.3 0 707 0C685.7 0 664.3 0 643 0C621.7 0 600.3 0 578.8 0C557.3 0 535.7 0 514.2 0C492.7 0 471.3 0 450 0C428.7 0 407.3 0 385.8 0C364.3 0 342.7 0 321.2 0C299.7 0 278.3 0 257 0C235.7 0 214.3 0 193 0C171.7 0 150.3 0 128.8 0C107.3 0 85.7 0 64.2 0C42.7 0 21.3 0 10.7 0L0 0Z" fill="#1584b9"></path><path d="M0 98L10.7 104.3C21.3 110.7 42.7 123.3 64.2 120C85.7 116.7 107.3 97.3 128.8 94.7C150.3 92 171.7 106 193 106.8C214.3 107.7 235.7 95.3 257 95.5C278.3 95.7 299.7 108.3 321.2 102.8C342.7 97.3 364.3 73.7 385.8 67.5C407.3 61.3 428.7 72.7 450 78C471.3 83.3 492.7 82.7 514.2 87.8C535.7 93 557.3 104 578.8 106.3C600.3 108.7 621.7 102.3 643 106.5C664.3 110.7 685.7 125.3 707 128.8C728.3 132.3 749.7 124.7 771.2 119.3C792.7 114 814.3 111 835.8 114.2C857.3 117.3 878.7 126.7 889.3 131.3L900 136L900 0L889.3 0C878.7 0 857.3 0 835.8 0C814.3 0 792.7 0 771.2 0C749.7 0 728.3 0 707 0C685.7 0 664.3 0 643 0C621.7 0 600.3 0 578.8 0C557.3 0 535.7 0 514.2 0C492.7 0 471.3 0 450 0C428.7 0 407.3 0 385.8 0C364.3 0 342.7 0 321.2 0C299.7 0 278.3 0 257 0C235.7 0 214.3 0 193 0C171.7 0 150.3 0 128.8 0C107.3 0 85.7 0 64.2 0C42.7 0 21.3 0 10.7 0L0 0Z" fill="#4265a7"></path></svg>